# SSTK version 0.8.0
# 2
mtllib original-2.mtl
o Component_4_1/Component_4/mesh1/mesh1-geometry#mesh1-geometry
v -0.124694 -0.002209 -0.045611
v -0.244182 -0.002209 -0.038515
v -0.247269 -0.005484 -0.037424
v -0.247269 0.038107 -0.037424
v -0.121625 -0.005484 -0.046752
v -0.244182 0.034832 -0.038515
v -0.267406 -0.005485 -0.094426
v -0.124694 0.034832 -0.045611
v -0.135917 -0.005485 -0.085183
v -0.121625 0.038107 -0.046752
v -0.267406 0.038108 -0.094426
v -0.159115 -0.005485 -0.164013
v -0.135917 0.038108 -0.085183
v -0.159115 0.038108 -0.164013
v -0.290552 -0.005485 -0.179813
v -0.176753 -0.005485 -0.244270
v -0.176753 0.038108 -0.244270
v -0.290552 0.038108 -0.179813
v -0.307245 -0.005485 -0.266692
v -0.188747 -0.005485 -0.325562
v -0.188747 0.038108 -0.325562
v -0.307245 0.038108 -0.266692
v -0.317392 -0.005485 -0.354576
v -0.195038 -0.005485 -0.407493
v -0.195038 0.038108 -0.407493
v -0.317392 0.038108 -0.354576
v -0.320935 -0.005485 -0.442973
v -0.195595 -0.005485 -0.489663
v -0.195595 0.038108 -0.489663
v -0.320935 0.038108 -0.442973
v -0.317854 -0.005485 -0.531388
v -0.190416 0.038108 -0.571672
v -0.317854 0.038108 -0.531388
v -0.190416 -0.005485 -0.571672
v -0.308168 -0.005485 -0.619324
v -0.179525 -0.005485 -0.653120
v -0.179525 0.038108 -0.653120
v -0.308168 0.038108 -0.619324
v -0.291930 -0.005485 -0.706289
v -0.162977 -0.005485 -0.733608
v -0.162977 0.038108 -0.733608
v -0.291930 0.038108 -0.706289
v -0.269231 0.038108 -0.791795
v -0.140851 -0.005485 -0.812746
v -0.140851 0.038108 -0.812746
v -0.269231 -0.005485 -0.791795
v -0.240199 0.038108 -0.875364
v -0.113176 -0.005485 -0.890368
v -0.240199 -0.005485 -0.875364
v -0.113176 0.038108 -0.890368
v -0.116157 -0.005497 -0.939580
v -0.204642 0.038107 -0.957346
v -0.132752 -0.005497 -0.958760
v -0.109222 0.038120 -0.915183
v -0.109222 -0.005497 -0.915183
v -0.109862 -0.005497 -0.902442
v -0.204642 -0.005484 -0.957346
v -0.111354 0.038120 -0.927761
v -0.155898 -0.005497 -0.969131
v -0.109862 0.038120 -0.902442
v -0.111354 -0.005497 -0.927761
v -0.123405 -0.005497 -0.950078
v -0.193276 0.038120 -0.964470
v -0.193276 -0.005497 -0.964470
v -0.116157 0.038120 -0.939580
v -0.143757 -0.005497 -0.965213
v -0.181258 -0.005497 -0.968751
v -0.132752 0.038120 -0.958760
v -0.123405 0.038120 -0.950078
v -0.181258 0.038120 -0.968751
v -0.155898 0.038120 -0.969131
v -0.143757 0.038120 -0.965213
v -0.168599 -0.005497 -0.970329
v -0.168599 0.038120 -0.970329
vn 0.16451260610170063 -0.0004919995823720029 0.9863748579368988
vn 0.1988230803559501 0.1358349817097126 0.9705762414471588
vn 0.15901376915272172 -0.0004909997680030606 0.9872762430743854
vn 0.20581633107110545 -0.12906389509700503 0.9700423438421739
vn 0.2139781316730679 -0.1365909180771018 0.9672415831965444
vn 0.1590308126585017 0.009249999780570718 0.987230286270248
vn -0.9428939783955974 0 0.333092998283246
vn -0.9547001513725298 0 0.2975695229173651
vn 0.20702925695475663 0.14329397913733566 0.9677839233567328
vn 0.0000019467789668116785 -1 0.0000011000251716991467
vn 0.16452961468874786 0.009259994191624479 0.9863286766580109
vn 0.9488810468974069 0 -0.3156339000153201
vn 0.9372777488086684 0 -0.34858344996306817
vn 0.0000019467789668116785 1 0.0000011000251716991467
vn -0.9742854265577929 0 0.22531734863764794
vn 0.9685990414395732 0 -0.24862802923713173
vn 0.9835899705708648 0 -0.1804183188936346
vn -0.9884119082062948 0 0.15179558529809384
vn 0.9937837323002295 0 -0.11132786450581762
vn -0.9969983048423061 0 0.07742338239555252
vn 0.999130430544373 0 -0.041693917544595796
vn -0.9999965754680492 0 0.0026170693866108463
vn 0.9996039376986464 0 0.02814192135161761
vn -0.9973899179053227 0 -0.07220354327049022
vn 0.9952019762732565 0 0.09784184392070977
vn 0.0000013880724144289188 1 2.7065930965755824e-7
vn 0.0000013880724144289188 -1 2.7065930965755824e-7
vn -0.9891928839618407 0 -0.14662004746710594
vn 0.985946109348932 0 0.16706366888017252
vn -0.9754515713993155 0 -0.22021405916654463
vn 0.9718813839982025 0 0.2354709651692514
vn -0.9562426231744683 0 -0.2925748547370599
vn 0.9530765917616351 0 0.3027292688790197
vn 0.000001117413104770243 1 0.0000016587317240848185
vn -0.000010285053752145878 -0.9999999985559991 0.00005274675167218531
vn -0.931675828509809 0 -0.36329072458646794
vn -0.00001364713332091241 0.999999994577496 0.00010324128879426149
vn -0.0012895959161794118 -0.999999165446254 0.00007777640017280042
vn 0.9419243371983833 0 0.33582516730195516
vn -0.0014002143675292341 0.9999990158987515 0.00008718516772219763
vn -0.00023618554214208334 -0.999999962333974 0.00013981573629482107
vn -0.9174253589048367 0 -0.3979079175366223
vn -0.00007532334943208416 -0.9999999968699977 0.000024215648940589648
vn -0.0003434647353987298 -0.9999999379349597 -0.00007849874254821391
vn -0.0014369324367621917 0.9999989655062659 0.0000648966134207658
vn -0.0017668847332641565 -0.9999984386677484 0.000027935725328059427
vn 0.9873791117745682 0 0.15837452330240678
vn 0.9643339250570686 0 0.26468864914088786
vn -0.0001568718610211305 0.9999999844669889 0.0000803569623164808
vn 0.00030321036755752233 0.99999898332176 0.0013933480970773206
vn -0.000018352669152864453 -0.9999999942974958 0.00010520545565404037
vn -0.004255632498510686 0.9999909218909508 -0.00021384041718249482
vn 0 -1 0
vn -0.004255632498510686 -0.9999909218909508 -0.00021384041718249482
vn -0.000040874810623079046 -0.999999998517499 0.000035975714809831355
vn -0.4358914316604894 0 -0.8999992554468971
vn -0.5310617946787972 0 -0.8473330928463345
vn -0.0015895976283305214 -0.9999984862192548 -0.0007076288427257909
vn -0.0007662655899836884 -0.9999996686699179 -0.0002747673562120204
vn -0.00006731019032640446 0.9999999948854963 0.00007548738829887259
vn -0.00003924330702846562 -0.9999999954694967 0.00008672352345258757
vn 0.000028692848757773986 -0.9999999896429924 0.0001410345185724086
vn 0.99826826711909 0 -0.058825733000525945
vn 0.9618818765124366 0 -0.2734652731827452
vn 0.879908001609379 0 -0.4751440925696005
vn 0.5967138014710053 0 -0.8024541352214604
vn 0.7562314717982163 0 -0.6543041808378607
vn 0.0005090480979936967 0.9999982423177942 0.001804503077262795
vn 0.0015084239415573146 0.9999898953185374 0.0042348456917982525
vn -0.00003747499145400498 0.9999999598559727 0.0002808623833270077
vn 0.2017369439466486 0 -0.9794397405900308
vn 0.40891557482018254 0 -0.912572217783053
vn 0.000001149896268027798 -0.9999999923834945 0.00012341672841279904
vn -0.23103125314312262 0 -0.9729463294915698
vn 0 1 0
vn -0.015002311460730378 0 -0.9998874589926785
vn -0.15901376915272172 0.0004909997680030606 -0.9872762430743854
vn -0.1988230803559501 -0.1358349817097126 -0.9705762414471588
vn -0.16451260610170063 0.0004919995823720029 -0.9863748579368988
vn -0.20581633107110545 0.12906389509700503 -0.9700423438421739
vn -0.2139781316730679 0.1365909180771018 -0.9672415831965444
vn -0.1590308126585017 -0.009249999780570718 -0.987230286270248
vn 0.9428939783955974 0 -0.333092998283246
vn 0.9547001513725298 0 -0.2975695229173651
vn -0.20702925695475663 -0.14329397913733566 -0.9677839233567328
vn -0.0000019467789668116785 1 -0.0000011000251716991467
vn -0.16452961468874786 -0.009259994191624479 -0.9863286766580109
vn -0.9372777488086684 0 0.34858344996306817
vn -0.9488810468974069 0 0.3156339000153201
vn -0.0000019467789668116785 -1 -0.0000011000251716991467
vn 0.9742854265577929 0 -0.22531734863764794
vn -0.9685990414395732 0 0.24862802923713173
vn -0.9835899705708648 0 0.1804183188936346
vn 0.9884119082062948 0 -0.15179558529809384
vn -0.9937837323002295 0 0.11132786450581762
vn 0.9969983048423061 0 -0.07742338239555252
vn -0.999130430544373 0 0.041693917544595796
vn 0.9999965754680492 0 -0.0026170693866108463
vn -0.9996039376986464 0 -0.02814192135161761
vn 0.9973899179053227 0 0.07220354327049022
vn -0.9952019762732565 0 -0.09784184392070977
vn -0.0000013880724144289188 -1 -2.7065930965755824e-7
vn -0.0000013880724144289188 1 -2.7065930965755824e-7
vn 0.9891928839618407 0 0.14662004746710594
vn -0.985946109348932 0 -0.16706366888017252
vn 0.9754515713993155 0 0.22021405916654463
vn -0.9718813839982025 0 -0.2354709651692514
vn 0.9562426231744683 0 0.2925748547370599
vn -0.9530765917616351 0 -0.3027292688790197
vn -0.000001117413104770243 -1 -0.0000016587317240848185
vn 0.000010285053752145878 0.9999999985559991 -0.00005274675167218531
vn 0.931675828509809 0 0.36329072458646794
vn 0.00001364713332091241 -0.999999994577496 -0.00010324128879426149
vn 0.0012895959161794118 0.999999165446254 -0.00007777640017280042
vn -0.9419243371983833 0 -0.33582516730195516
vn 0.0014002143675292341 -0.9999990158987515 -0.00008718516772219763
vn 0.00023618554214208334 0.999999962333974 -0.00013981573629482107
vn 0.9174253589048367 0 0.3979079175366223
vn 0.0003434647353987298 0.9999999379349597 0.00007849874254821391
vn 0.00007532334943208416 0.9999999968699977 -0.000024215648940589648
vn 0.0014369324367621917 -0.9999989655062659 -0.0000648966134207658
vn 0.0017668847332641565 0.9999984386677484 -0.000027935725328059427
vn -0.9643339250570686 0 -0.26468864914088786
vn -0.9873791117745682 0 -0.15837452330240678
vn -0.00030321036755752233 -0.99999898332176 -0.0013933480970773206
vn 0.0001568718610211305 -0.9999999844669889 -0.0000803569623164808
vn 0.000018352669152864453 0.9999999942974958 -0.00010520545565404037
vn 0.004255632498510686 -0.9999909218909508 0.00021384041718249482
vn 0.004255632498510686 0.9999909218909508 0.00021384041718249482
vn 0.000040874810623079046 0.999999998517499 -0.000035975714809831355
vn 0.5310617946787972 0 0.8473330928463345
vn 0.4358914316604894 0 0.8999992554468971
vn 0.0007662655899836884 0.9999996686699179 0.0002747673562120204
vn 0.0015895976283305214 0.9999984862192548 0.0007076288427257909
vn 0.00006731019032640446 -0.9999999948854963 -0.00007548738829887259
vn 0.00003924330702846562 0.9999999954694967 -0.00008672352345258757
vn -0.000028692848757773986 0.9999999896429924 -0.0001410345185724086
vn -0.99826826711909 0 0.058825733000525945
vn -0.9618818765124366 0 0.2734652731827452
vn -0.879908001609379 0 0.4751440925696005
vn -0.5967138014710053 0 0.8024541352214604
vn -0.7562314717982163 0 0.6543041808378607
vn -0.0015084239415573146 -0.9999898953185374 -0.0042348456917982525
vn -0.0005090480979936967 -0.9999982423177942 -0.001804503077262795
vn 0.00003747499145400498 -0.9999999598559727 -0.0002808623833270077
vn -0.2017369439466486 0 0.9794397405900308
vn -0.40891557482018254 0 0.912572217783053
vn -0.000001149896268027798 0.9999999923834945 -0.00012341672841279904
vn 0.23103125314312262 0 0.9729463294915698
vn 0.015002311460730378 0 0.9998874589926785
usemtl material_0_0
f 1//1 2//2 3//3
f 2//2 4//4 3//3
f 5//5 1//1 3//3
f 4//4 2//2 6//6
f 4//7 7//8 3//7
f 5//5 8//9 1//1
f 3//10 9//10 5//10
f 10//11 4//4 6//6
f 7//8 4//7 11//8
f 12//10 3//10 7//10
f 8//9 5//5 10//11
f 9//10 3//10 12//10
f 9//12 10//13 5//13
f 13//14 4//14 10//14
f 10//11 6//6 8//9
f 4//14 14//14 11//14
f 11//8 15//15 7//8
f 12//10 7//10 16//10
f 14//16 9//12 12//16
f 10//13 9//12 13//12
f 4//14 13//14 14//14
f 11//14 14//14 17//14
f 15//15 11//8 18//15
f 16//10 7//10 15//10
f 17//17 12//16 16//17
f 9//12 14//16 13//12
f 12//16 17//17 14//16
f 11//14 17//14 18//14
f 18//15 19//18 15//15
f 16//10 15//10 20//10
f 16//17 21//19 17//17
f 18//14 17//14 21//14
f 19//18 18//15 22//18
f 20//10 15//10 19//10
f 21//19 16//17 20//19
f 18//14 21//14 22//14
f 22//18 23//20 19//18
f 20//10 19//10 24//10
f 20//19 25//21 21//19
f 22//14 21//14 25//14
f 23//20 22//18 26//20
f 24//10 19//10 23//10
f 25//21 20//19 24//21
f 22//14 25//14 26//14
f 26//20 27//22 23//20
f 24//10 23//10 28//10
f 24//21 29//23 25//21
f 26//14 25//14 29//14
f 27//22 26//20 30//22
f 28//10 23//10 27//10
f 29//23 24//21 28//23
f 26//14 29//14 30//14
f 30//22 31//24 27//22
f 28//10 27//10 31//10
f 28//23 32//25 29//23
f 32//26 30//14 29//14
f 31//24 30//22 33//24
f 31//10 34//27 28//10
f 32//25 28//23 34//25
f 30//14 32//26 33//26
f 33//24 35//28 31//24
f 34//27 31//10 36//27
f 34//25 37//29 32//25
f 33//26 32//26 37//26
f 35//28 33//24 38//28
f 36//27 31//10 35//27
f 37//29 34//25 36//29
f 33//26 37//26 38//26
f 38//28 39//30 35//28
f 36//27 35//27 40//10
f 40//31 37//29 36//29
f 38//26 37//26 41//26
f 39//30 38//28 42//30
f 40//10 35//27 39//10
f 37//29 40//31 41//31
f 38//26 41//26 42//26
f 43//32 39//30 42//30
f 39//10 44//10 40//10
f 44//33 41//31 40//31
f 45//34 42//26 41//26
f 39//30 43//32 46//32
f 42//26 45//34 43//26
f 44//10 39//10 46//35
f 41//31 44//33 45//33
f 47//36 46//32 43//32
f 43//26 45//34 47//37
f 44//10 46//35 48//38
f 48//39 45//33 44//33
f 46//32 47//36 49//36
f 47//37 45//34 50//40
f 51//41 48//38 46//35
f 45//33 48//39 50//39
f 52//42 49//36 47//36
f 53//43 46//35 49//44
f 47//37 50//40 54//45
f 51//41 55//46 48//38
f 53//43 51//41 46//35
f 56//47 50//48 48//48
f 49//36 52//42 57//42
f 47//37 58//49 52//50
f 59//51 53//43 49//44
f 54//45 50//40 60//52
f 58//49 47//37 54//45
f 51//41 61//53 55//46
f 55//46 56//54 48//38
f 51//41 53//43 62//55
f 50//48 56//47 60//47
f 63//56 57//57 52//57
f 57//58 64//59 49//44
f 65//60 52//50 58//49
f 53//43 59//51 66//61
f 67//62 59//51 49//44
f 56//47 54//63 60//47
f 54//63 61//64 58//64
f 65//65 61//64 51//65
f 61//64 54//63 55//63
f 54//63 56//47 55//63
f 68//66 62//67 53//66
f 69//67 51//65 62//67
f 57//57 63//56 64//56
f 52//50 70//68 63//69
f 64//59 67//62 49//44
f 52//50 65//60 71//70
f 61//64 65//65 58//64
f 71//71 66//72 59//71
f 72//72 53//66 66//72
f 59//51 67//62 73//73
f 51//65 69//67 65//65
f 62//67 68//66 69//67
f 53//66 72//72 68//66
f 70//74 64//56 63//56
f 52//50 71//70 70//68
f 64//56 70//74 67//74
f 71//70 65//60 68//75
f 66//72 71//71 72//72
f 73//76 71//71 59//71
f 67//74 74//76 73//76
f 68//75 65//60 69//75
f 71//70 68//75 72//75
f 70//68 71//70 74//75
f 74//76 67//74 70//74
f 71//71 73//76 74//76
usemtl material_1_0
f 3//77 2//78 1//79
f 3//77 4//80 2//78
f 3//77 1//79 5//81
f 6//82 2//78 4//80
f 3//83 7//84 4//83
f 1//79 8//85 5//81
f 5//86 9//86 3//86
f 6//82 4//80 10//87
f 11//84 4//83 7//84
f 7//86 3//86 12//86
f 10//87 5//81 8//85
f 12//86 3//86 9//86
f 5//88 10//88 9//89
f 10//90 4//90 13//90
f 8//85 6//82 10//87
f 11//90 14//90 4//90
f 7//84 15//91 11//84
f 16//86 7//86 12//86
f 12//92 9//89 14//92
f 13//89 9//89 10//88
f 14//90 13//90 4//90
f 17//90 14//90 11//90
f 18//91 11//84 15//91
f 15//86 7//86 16//86
f 16//93 12//92 17//93
f 13//89 14//92 9//89
f 14//92 17//93 12//92
f 18//90 17//90 11//90
f 15//91 19//94 18//91
f 20//86 15//86 16//86
f 17//93 21//95 16//93
f 21//90 17//90 18//90
f 22//94 18//91 19//94
f 19//86 15//86 20//86
f 20//95 16//93 21//95
f 22//90 21//90 18//90
f 19//94 23//96 22//94
f 24//86 19//86 20//86
f 21//95 25//97 20//95
f 25//90 21//90 22//90
f 26//96 22//94 23//96
f 23//86 19//86 24//86
f 24//97 20//95 25//97
f 26//90 25//90 22//90
f 23//96 27//98 26//96
f 28//86 23//86 24//86
f 25//97 29//99 24//97
f 29//90 25//90 26//90
f 30//98 26//96 27//98
f 27//86 23//86 28//86
f 28//99 24//97 29//99
f 30//90 29//90 26//90
f 27//98 31//100 30//98
f 31//86 27//86 28//86
f 29//99 32//101 28//99
f 29//90 30//90 32//102
f 33//100 30//98 31//100
f 28//86 34//103 31//86
f 34//101 28//99 32//101
f 33//102 32//102 30//90
f 31//100 35//104 33//100
f 36//103 31//86 34//103
f 32//101 37//105 34//101
f 37//102 32//102 33//102
f 38//104 33//100 35//104
f 35//103 31//86 36//103
f 36//105 34//101 37//105
f 38//102 37//102 33//102
f 35//104 39//106 38//104
f 40//86 35//103 36//103
f 36//105 37//105 40//107
f 41//102 37//102 38//102
f 42//106 38//104 39//106
f 39//86 35//103 40//86
f 41//107 40//107 37//105
f 42//102 41//102 38//102
f 42//106 39//106 43//108
f 40//86 44//86 39//86
f 40//107 41//107 44//109
f 41//102 42//102 45//110
f 46//108 43//108 39//106
f 43//102 45//110 42//102
f 46//111 39//86 44//86
f 45//109 44//109 41//107
f 43//108 46//108 47//112
f 47//113 45//110 43//102
f 48//114 46//111 44//86
f 44//109 45//109 48//115
f 49//112 47//112 46//108
f 50//116 45//110 47//113
f 46//111 48//114 51//117
f 50//115 48//115 45//109
f 47//112 49//112 52//118
f 49//119 46//111 53//120
f 54//121 50//116 47//113
f 48//114 55//122 51//117
f 46//111 51//117 53//120
f 48//123 50//123 56//124
f 57//118 52//118 49//112
f 52//125 58//126 47//113
f 49//119 53//120 59//127
f 60//128 50//116 54//121
f 54//121 47//113 58//126
f 55//122 61//75 51//117
f 48//114 56//129 55//122
f 62//130 53//120 51//117
f 60//124 56//124 50//123
f 52//131 57//131 63//132
f 49//119 64//133 57//134
f 58//126 52//125 65//135
f 66//136 59//127 53//120
f 49//119 59//127 67//137
f 60//124 54//138 56//124
f 58//139 61//139 54//138
f 51//140 61//139 65//140
f 55//138 54//138 61//139
f 55//138 56//124 54//138
f 53//141 62//142 68//141
f 62//142 51//140 69//142
f 64//132 63//132 57//131
f 63//143 70//144 52//125
f 49//119 67//137 64//133
f 71//145 65//135 52//125
f 58//139 65//140 61//139
f 59//146 66//147 71//146
f 66//147 53//141 72//147
f 73//148 67//137 59//127
f 65//140 69//142 51//140
f 69//142 68//141 62//142
f 68//141 72//147 53//141
f 63//132 64//132 70//149
f 70//144 71//145 52//125
f 67//149 70//149 64//132
f 68//53 65//135 71//145
f 72//147 71//146 66//147
f 59//146 71//146 73//150
f 73//150 74//150 67//149
f 69//53 65//135 68//53
f 72//53 68//53 71//145
f 74//53 71//145 70//144
f 70//149 67//149 74//150
f 74//150 73//150 71//146
